# xmcd
#
# Track frame offsets:
#	150
#	6770
#	12265
#	19052
#	24262
#	30930
#	38347
#	45917
#	51172
#	54487
#	59940
#	62930
#	66115
#	69122
#	72275
#	78910
#	84790
#	90950
#	95610
#	101147
#	105807
#	111232
#	115947
#	122942
#	131752
#	136060
#	143937
#	151807
#	157677
#	161020
#	167135
#	170482
#	173742
#	177442
#	182202
#	187212
#	190610
#	194672
#	199810
#	204245
#	208335
#	210890
#	217650
#	220310
#	225185
#	230442
#	236415
#	242277
#	248757
#	256770
#	260950
#	268150
#	274292
#
# Disc length: 3764 seconds
#
# Revision: 0
# Processed by: cddbd v1.5PL3 Copyright (c) Steve Scherf et al.
# Submitted via: dBpowerAMP V4.0
#
DISCID=d50eb235
DTITLE=Various Artist - Switched on Country
DYEAR=1999
DGENRE=Country
TTITLE0=Only Love
TTITLE1=Annie's Song
TTITLE2=Me and Bobby McGhee
TTITLE3=Help Me Make It Through The Night
TTITLE4=Some Days Are Diamond
TTITLE5=Slow Hand
TTITLE6=I Don't Wanna Play House
TTITLE7=Your Cheating Heart
TTITLE8=Listen To The Radio
TTITLE9=Hello, I Love You
TTITLE10=Sundown
TTITLE11=Woman, Beautiful Woman
TTITLE12=Ruby, Don't Take Your Love To Town
TTITLE13=Gentle On My Mind
TTITLE14=Jolene
TTITLE15=Let Your Love Flow
TTITLE16=Rhinestone Cowboy
TTITLE17=Oh, Lonesome Me
TTITLE18=Half The Way
TTITLE19=If I Said You Had A Beautiful Body
TTITLE20=Detroit City
TTITLE21=Down The Mississippi
TTITLE22=Mississippi
TTITLE23=The Sweetest Thing
TTITLE24=You Never Gave Up On Me
TTITLE25=Always On My Mind
TTITLE26=Love Me Tender
TTITLE27=Honey
TTITLE28=Wolverton Mountain
TTITLE29=Coward Of The County
TTITLE30=Some Broken Hearts Never Mend
TTITLE31=Take Me Home Country Roads
TTITLE32=All I Ever Need Is You
TTITLE33=Heaven Is My Woman's Love
TTITLE34=You Asked Me To
TTITLE35=Before The Next Teardrop Falls
TTITLE36=The Banks Of Ohio
TTITLE37=If You Love Me Let Me Know
TTITLE38=You're My Best Friend
TTITLE39=I Recall A Gypsy Woman
TTITLE40=The Shelter Of Your Arms
TTITLE41=Silver Threads And Golden Needles
TTITLE42=Honey Come Back
TTITLE43=The Most Beautiful Girl
TTITLE44=Have I Told You Lately That I Love You
TTITLE45=I Walk The Line
TTITLE46=Take Me Back
TTITLE47=Back Home Again
TTITLE48=When You Were Sweet Sixteen
TTITLE49=Love Hurts
TTITLE50=You Needed Me
TTITLE51=Blue Eyes Crying In The Rain
TTITLE52=I Will Always Love You
EXTD=1999 Musicbank Limited\nwww.musicbank.co.uk\n\nIan Stewart\n
EXTT0=
EXTT1=
EXTT2=
EXTT3=
EXTT4=
EXTT5=
EXTT6=
EXTT7=
EXTT8=
EXTT9=
EXTT10=
EXTT11=
EXTT12=
EXTT13=
EXTT14=
EXTT15=
EXTT16=
EXTT17=
EXTT18=
EXTT19=
EXTT20=
EXTT21=
EXTT22=
EXTT23=
EXTT24=
EXTT25=
EXTT26=
EXTT27=
EXTT28=
EXTT29=
EXTT30=
EXTT31=
EXTT32=
EXTT33=
EXTT34=
EXTT35=
EXTT36=
EXTT37=
EXTT38=
EXTT39=
EXTT40=
EXTT41=
EXTT42=
EXTT43=
EXTT44=
EXTT45=
EXTT46=
EXTT47=
EXTT48=
EXTT49=
EXTT50=
EXTT51=
EXTT52=
PLAYORDER=
